<svg width="580" height="400" xmlns="http://www.w3.org/2000/svg">
 <!-- Created with Method Draw - http://github.com/duopixel/Method-Draw/ -->

 <g>
  <title>background</title>
  <rect fill="#fff" id="canvas_background" height="402" width="582" y="-1" x="-1"/>
  <g display="none" overflow="visible" y="0" x="0" height="100%" width="100%" id="canvasGrid">
   <rect fill="url(#gridpattern)" stroke-width="0" y="0" x="0" height="100%" width="100%"/>
  </g>
 </g>
 <g>
  <title>Layer 1</title>

  <defs>
   <linearGradient y2="0.500118" x2="1" y1="0.500118" x1="0.000418" id="svg_108">
    <stop stop-opacity="0.25" stop-color="gray" offset="0"/>
    <stop stop-opacity="0.12" stop-color="gray" offset="0.54"/>
    <stop stop-opacity="0.1" stop-color="gray" offset="1"/>
   </linearGradient>
  </defs>
  <g opacity="0.7" id="svg_206">
   <ellipse transform="matrix(0.40862270583801674,0,0,0.40862270583801674,0,0) " id="svg_110" opacity="0.1" fill="#6c63ff" ry="33.36" rx="176.1" cy="835.752383" cx="559.063381"/>
   <path id="svg_111" opacity="0.1" fill="#6c63ff" d="m323.418079,84.128217c-26.446062,-0.915315 -51.633565,-9.455529 -75.685098,-18.796644s-47.874236,-19.687442 -73.686933,-24.635863c-16.602341,-3.183171 -35.591038,-3.636742 -48.965259,5.254888c-12.875701,8.581077 -17.035481,23.352788 -19.270647,37.070252c-1.683526,10.32181 -2.672392,21.187087 1.936872,30.851014c3.203602,6.709585 8.883458,12.348578 12.814408,18.776213c13.676602,22.359834 4.008589,49.933695 -10.808071,71.766406c-6.946586,10.240085 -15.016884,20.022513 -20.382101,30.912308s-7.845556,23.409995 -3.150481,34.54905c4.650126,11.032813 15.73606,19.303337 27.745482,25.12621c24.390689,11.829627 53.120952,15.213023 81.156556,17.13355c62.041185,4.241504 124.409269,2.406788 186.613904,0.563899c23.021803,-0.678314 46.141676,-1.368886 68.787546,-4.92799c12.577407,-1.977734 25.55935,-5.115956 34.692068,-12.691821c11.58854,-9.614892 14.461158,-25.894421 6.69324,-37.948791c-13.026892,-20.226824 -49.034725,-25.248797 -58.151097,-46.950749c-5.009714,-11.948128 0.134845,-25.252883 7.420588,-36.330645c15.625732,-23.769583 41.814361,-44.621599 43.19142,-71.786837c0.948005,-18.657713 -11.641661,-37.344029 -31.108447,-46.174366c-20.402532,-9.255304 -48.699654,-8.09073 -63.745142,7.228536c-15.507232,15.756492 -42.746021,21.824539 -66.098809,21.01138z"/>
   <path id="svg_112" fill="url(#svg_108)" d="m302.402614,186.422825l-12.516113,-8.438059l0,0l6.313221,-9.398322l-33.057577,-2.635616l-11.878662,9.185838l-14.86978,-8.335903l-12.401699,1.491473l-0.147104,-3.268982a92.258835,92.258835 0 0 0 -1.025643,-10.174705c0.053121,-1.021557 0.089897,-2.194304 0.085811,-3.469207c0,-5.373389 -0.727348,-12.495682 -3.922778,-17.243878l0.735521,-6.611515l-5.965892,-7.048742a45.099688,45.099688 0 0 1 3.268982,-5.500062c0.204311,-0.294208 0.408623,-0.580244 0.629279,-0.858108c7.7434,-0.559813 13.85231,-6.926155 13.85231,-14.710417c0,-0.359588 0,-0.719176 -0.040862,-1.074678c0,-0.143018 -0.028604,-0.290122 -0.044948,-0.43314c0.755952,0.408623 1.520076,0.817245 2.284201,1.225868c0.143018,0.204311 0.306467,0.408623 0.486261,0.64971l0,0l0.036776,0.044948l0.228829,0.28195l0.073552,0.085811c0.081725,0.098069 0.167535,0.192053 0.253346,0.290122l0.057207,0.06538c0.21657,0.241087 0.445399,0.486261 0.690572,0.727348a0.735521,0.735521 0 0 1 0.081725,0.077638l0.306467,0.286036l0.085811,0.077638c0.261519,0.232915 0.539382,0.457657 0.817245,0.670141l0.089897,0.06538l0.351416,0.241087l0.114414,0.073552c0.134845,0.081725 0.273777,0.167535 0.408623,0.245174l0.049035,0.028604c0.159363,0.085811 0.322812,0.167535 0.486261,0.245174l0.081725,0.03269q0.208398,0.089897 0.408623,0.171622l0.126673,0.044948c0.143018,0.049035 0.28195,0.093983 0.429054,0.134845l0.089897,0.024517c0.179794,0.044948 0.359588,0.081725 0.543468,0.110328l0.020431,0a4.445815,4.445815 0 0 0 0.523037,0.053121l0.118501,0a4.49485,4.49485 0 0 0 0.469916,0l0.102156,0a4.842179,4.842179 0 0 0 0.58433,-0.069466a6.448066,6.448066 0 0 0 2.574323,-0.923487a2.247425,2.247425 0 0 0 0.523037,-0.486261c0.817245,-1.070591 -0.081725,-2.243339 -0.081725,-2.243339l0,0c-0.318726,-0.760038 -2.386357,-1.295334 -2.386357,-1.295334s-6.537963,-2.7296 -6.537963,-4.903472s-1.634491,-13.451859 -18.506522,-16.030269c0,0 -10.975606,-0.61702 -14.060707,5.258974l-0.06538,0.686486c-0.907142,0.567986 -1.659008,1.708043 -2.553892,2.043114a4.172038,4.172038 0 0 0 -1.107368,0.408623l0,-0.077638l0,0a1.054247,1.054247 0 0 0 -0.24926,0.322812a3.268982,3.268982 0 0 0 -0.339157,1.225868a4.617437,4.617437 0 0 1 -0.535296,1.4833a3.297585,3.297585 0 0 1 -0.245174,0.375933l0,0l-0.069466,0.110328a2.982946,2.982946 0 0 0 1.389317,-0.224742a6.917982,6.917982 0 0 1 -0.408623,1.634491a1.356627,1.356627 0 0 0 1.258558,-0.751866l0,-0.03269l0.053121,-0.073552a3.448776,3.448776 0 0 0 0.253346,-0.592503l-0.044948,0.049035c0.081725,-0.265605 0.155277,-0.535296 0.245174,-0.796814a1.250385,1.250385 0 0 1 0.200225,-0.408623a0.988867,0.988867 0 0 1 0.845849,-0.28195l-0.167535,3.542759l0.073552,0a4.834007,4.834007 0 0 1 -0.359588,0.743693c-0.580244,0.939832 -1.634491,1.58137 -2.022682,2.611099a3.841053,3.841053 0 0 0 -0.187966,1.544594c0,0.306467 0.036776,0.61702 0.061293,0.923487l0,-0.024517c0.057207,0.817245 0.073552,1.593629 -0.36776,2.251511c-0.302381,0.449485 -0.788642,0.788642 -0.956177,1.29942a1.26673,1.26673 0 0 0 -0.061293,0.441313a4.956593,4.956593 0 0 0 0.277863,1.311679a0.057207,0.057207 0 0 0 0,-0.024517a1.994079,1.994079 0 0 1 0.069466,0.96435c-0.18388,0.817245 -1.176833,1.499645 -1.127799,2.280115a0.878539,0.878539 0 0 0 0.044948,0.302381a1.654922,1.654922 0 0 0 0.923487,0.817245a3.59588,3.59588 0 0 0 2.075803,0.457657a2.7296,2.7296 0 0 0 0.776383,-0.265605c-0.286036,0.657883 -0.580244,1.307593 -0.878539,1.924613c-0.044948,0.098069 -0.093983,0.196139 -0.143018,0.294208c0,0 -2.525288,-1.687612 -3.959554,1.752991a7.633072,7.633072 0 0 0 -0.886711,2.304632a5.483717,5.483717 0 0 1 -0.302381,0.948005a6.100737,6.100737 0 0 1 -2.7296,2.451736c-2.925739,1.340282 -14.743107,16.079303 -14.951505,19.89584a22.265851,22.265851 0 0 1 -0.751866,4.404953a26.213147,26.213147 0 0 0 -0.702831,10.415793a19.928529,19.928529 0 0 0 0.723262,3.322103c1.254472,3.81245 2.092148,10.926571 2.092148,10.926571l1.356627,12.348578a35.141553,35.141553 0 0 0 0.220656,5.103698c-1.385231,1.58137 -6.946586,8.172454 -4.821748,9.966308c1.634491,1.413835 4.49485,1.18092 6.100737,0.890797c-1.352541,3.34662 -3.481465,9.165407 -3.763415,13.161737c-0.408623,5.912771 0.698745,13.746068 2.451736,16.753531s7.596296,10.72226 7.596296,10.72226s-0.273777,10.583328 1.814285,14.428468s2.929825,11.821455 2.929825,11.821455s1.94913,6.734102 0.972522,9.210356s1.810199,4.535712 -1.11554,6.182462s-6.668723,38.76195 -6.668723,38.76195s-1.507818,24.32531 0,25.563436a1.532335,1.532335 0 0 0 0.257432,0.15119l0,8.172454s-1.046074,1.716215 3.207688,2.063545c2.91348,0.232915 11.171745,0.760038 16.071131,1.066505l3.796105,0.237001s8.9897,1.789767 12.961512,0s11.012382,-1.748905 9.966308,-6.47667a13.451859,13.451859 0 0 0 -0.555727,-1.891923c-1.14823,-2.933911 -3.09736,-3.268982 -6.689154,-4.086227c-0.208398,-0.044948 -0.408623,-0.085811 -0.592503,-0.118501c-3.783846,-0.657883 -5.026059,1.103281 -7.146811,-1.189092c-1.842888,-1.98182 -7.71071,-4.200641 -9.708875,-4.903472c0.049035,-0.147104 0.110328,-0.290122 0.159363,-0.441313a2.991118,2.991118 0 0 1 -1.51599,-0.739607l5.414251,0.343243l3.224033,0.200225s7.641245,1.524163 11.032813,0s9.35746,-1.4833 8.466662,-5.500062a11.527247,11.527247 0 0 0 -0.469916,-1.609973c-0.976608,-2.492599 -2.635616,-2.766376 -5.688028,-3.456948c-0.175708,-0.036776 -0.339157,-0.073552 -0.502606,-0.102156c-3.215861,-0.559813 -4.270107,0.935746 -6.072133,-1.009298c-1.544594,-1.659008 -6.419463,-3.518241 -8.172454,-4.151607c0,-0.907142 -1.225868,-2.19839 -1.998165,-3.493724c-0.907142,-1.511904 0.768211,-6.803568 0.768211,-6.803568l0.956177,-21.955298a4.241504,4.241504 0 0 1 1.144144,-0.326898s4.323228,-4.127089 3.34662,-8.52387a28.248088,28.248088 0 0 1 -0.310553,-4.016761c1.422007,-1.319851 3.37931,-3.268982 3.935037,-4.470332c0.907142,-1.957303 0,-11.441436 0,-11.441436l0,-36.265265l7.232622,0.731435l6.562481,0.674227l1.998165,0.204311l6.562481,0.661969l15.082264,1.524163l13.590791,-2.574323l5.880081,-1.111454l12.091146,-2.288287l0,-29.584284l12.516113,-2.067631zm-99.544577,-98.032673l-0.841763,-0.089897c0.277863,0.012259 0.572072,0.06538 0.841763,0.089897z"/>
   <path id="svg_113" fill="#efb7b9" d="m273.06759,205.632178c-4.086227,5.847391 -18.776213,2.750031 -18.776213,2.750031l-11.384229,-10.652794l-1.532335,-1.442438l2.570237,-5.459199s0.817245,0.224742 2.218821,0.625193c7.359295,2.137097 30.352495,9.263477 26.903719,14.179208z"/>
   <path id="svg_114" opacity="0.1" d="m246.155698,191.452971c-0.502606,1.748905 -1.879664,4.368177 -3.248551,6.276445l-1.532335,-1.442438l2.570237,-5.459199s0.825418,0.224742 2.210649,0.625193z"/>
   <path id="svg_115" fill="#dce6f2" d="m207.111799,129.889874s-10.493431,4.654213 -9.978566,16.08339a188.432275,188.432275 0 0 0 2.402702,21.967557s-2.145269,17.19893 6.787223,21.632486s17.19893,8.078471 17.19893,8.078471s13.974897,1.503732 15.711543,2.124838s7.163156,-8.875285 6.16203,-10.354499s-13.827792,-4.580661 -15.462283,-7.048742s-5.414251,-3.992244 -5.414251,-3.992244s-3.902347,-2.361839 -4.167952,-4.49485s0.764124,-3.722553 1.025643,-4.658299s0.923487,-9.970394 0.923487,-9.970394s4.404953,-32.158607 -15.188506,-29.367714z"/>
   <path id="svg_116" opacity="0.1" d="m214.037954,167.470904s-14.395778,2.410874 -13.002374,7.449192c0,0 5.226284,-5.438768 13.002374,-7.449192z"/>
   <path id="svg_117" opacity="0.1" d="m214.148282,169.509931s-7.915022,6.460325 -6.366342,6.791309s6.366342,-6.791309 6.366342,-6.791309z"/>
   <path id="svg_118" opacity="0.1" d="m217.952559,171.761442s-2.120752,4.343659 -0.817245,4.049451s0.817245,-4.049451 0.817245,-4.049451z"/>
   <path id="svg_119" opacity="0.1" d="m246.686908,191.914714l-0.874453,-0.24926c0.24926,-0.817245 0.318726,-1.479214 0.114414,-1.785681c-1.001126,-1.479214 -13.81962,-4.576574 -15.450025,-7.048742s-5.414251,-3.992244 -5.414251,-3.992244s-3.902347,-2.361839 -4.167952,-4.49485s0.764124,-3.722553 1.025643,-4.658299s0.923487,-9.97448 0.923487,-9.97448s4.392694,-32.154521 -15.200765,-29.363628c0,0 -10.493431,4.658299 -9.982653,16.087476a187.905151,187.905151 0 0 0 2.406788,21.967557s-2.145269,17.19893 6.787223,21.632486s17.19893,8.078471 17.19893,8.078471s13.97081,1.499645 15.711543,2.124838c0.657883,0.237001 1.846975,-0.984781 3.011549,-2.66422l0.661969,0.61702l11.384229,10.648708s14.689986,3.101446 18.776213,-2.745945c3.452862,-4.919817 -19.536252,-12.046197 -26.911891,-14.179208z"/>
   <path id="svg_120" fill="#965d7b" d="m201.072355,86.992662a3.473293,3.473293 0 0 0 -1.131885,0.437226c-0.408623,0.339157 -0.408623,0.919401 -0.510778,1.426093a4.690989,4.690989 0 0 1 -0.817245,1.953217a2.937997,2.937997 0 0 0 1.360714,-0.224742a7.003793,7.003793 0 0 1 -0.408623,1.634491a1.323938,1.323938 0 0 0 1.225868,-0.74778a7.870073,7.870073 0 0 0 0.510778,-1.434266a1.18092,1.18092 0 0 1 0.196139,-0.408623c0.375933,-0.445399 1.074678,-0.245174 1.654922,-0.187966a2.717341,2.717341 0 0 0 2.484426,-1.193178c0.61702,-0.935746 0.653796,-3.330275 -0.817245,-3.583621c-1.536421,-0.253346 -2.492599,1.86332 -3.74707,2.329149z"/>
   <g transform="matrix(0.40862270583801674,0,0,0.40862270583801674,0,0) " id="svg_121" opacity="0.1">
    <path id="svg_122" d="m489.203377,215.192385c0.09,-0.49 0.15,-1 0.26,-1.49l0,0c-0.95,0.83 -1,2.24 -1.25,3.49a11,11 0 0 1 -0.59,2.11a11.46,11.46 0 0 0 1.58,-4.11z"/>
    <path id="svg_123" d="m489.523377,223.452385a16.63,16.63 0 0 0 1,-4a7.16,7.16 0 0 1 -3.17,0.55a11.57,11.57 0 0 1 -1.15,2a7.12,7.12 0 0 0 3.32,-0.54a16.63,16.63 0 0 1 -1,4a3.25,3.25 0 0 0 3,-1.83a7.46,7.46 0 0 0 0.6,-1.43a3,3 0 0 1 -2.6,1.25z"/>
    <path id="svg_124" d="m498.303377,216.652385c-1.42,-0.14 -3.14,-0.63 -4.06,0.46a3.09,3.09 0 0 0 -0.48,1c-0.09,0.26 -0.17,0.53 -0.24,0.8c0.95,-0.75 2.49,-0.35 3.78,-0.22a6.68,6.68 0 0 0 6.08,-2.92a5.54,5.54 0 0 0 0.67,-1.57a6.66,6.66 0 0 1 -5.75,2.45z"/>
   </g>
   <polygon id="svg_125" fill="#dce6f2" points="213.37188720703125,120.74081420898438 219.6033935546875,128.2349395751953 218.7902374267578,135.79856872558594 211.2593231201172,124.00979614257812 213.37188720703125,120.74081420898438 "/>
   <polygon id="svg_126" opacity="0.1" points="219.5993194580078,128.2349395751953 218.83517456054688,135.3490753173828 218.78614807128906,135.79856872558594 211.99075317382812,125.15802001953125 211.2593231201172,124.00979614257812 211.4718017578125,123.6788101196289 213.36781311035156,120.74081420898438 213.7886962890625,121.24749755859375 219.5993194580078,128.2349395751953 "/>
   <path id="svg_127" fill="#efb7b9" d="m222.8356,110.59471c-2.108493,0.604762 -4.123003,2.680565 -5.875995,5.201767a44.396857,44.396857 0 0 0 -3.170912,5.451027c-0.576158,1.152316 -1.08285,2.259684 -1.503732,3.224033l-0.294208,0.686486c-0.711004,1.679439 -1.107368,2.803152 -1.107368,2.803152s-16.140597,-12.136094 -13.586705,-12.95334c0.858108,-0.273777 1.985906,-2.112579 3.101446,-4.42947l0.138932,-0.294208c0.706917,-1.487387 1.401576,-3.146395 2.018596,-4.707334c1.262644,-3.207688 2.19839,-5.994495 2.19839,-5.994495s24.517362,9.17358 18.081555,11.012382z"/>
   <path id="svg_128" fill="#444053" d="m232.491355,98.899928s3.726639,6.742275 8.732267,5.822874s2.94617,-3.620397 2.94617,-3.620397l-11.678437,-2.202476z"/>
   <path id="svg_129" fill="#a36468" d="m225.270992,332.284786c-3.301671,1.507818 -10.767208,0 -10.767208,0l-3.146395,-0.196139c-4.086227,-0.261519 -10.926571,-0.702831 -13.345618,-0.89897c-3.5305,-0.290122 -2.66422,-1.736646 -2.66422,-1.736646l0,-8.74044l17.129464,-4.339573s6.770878,2.316891 8.626025,4.339573c1.761164,1.928699 2.790893,0.445399 5.933202,1.001126c0.155277,0.028604 0.318726,0.061293 0.490347,0.102156c2.982946,0.6824 4.601092,0.952091 5.557269,3.424258a11.482298,11.482298 0 0 1 0.461744,1.593629c0.882625,3.979985 -4.977025,3.951382 -8.27461,5.451027z"/>
   <path id="svg_130" opacity="0.1" d="m233.083858,325.240131a12.806236,12.806236 0 0 1 -1.928699,0.988867c-2.247425,1.025643 -4.384522,2.276028 -6.656464,3.244464s-4.719592,1.659008 -7.179501,1.475128c-1.287162,-0.093983 -2.602927,-0.408623 -3.832881,-0.040862a8.850768,8.850768 0 0 0 -2.128924,1.18092c-4.086227,-0.261519 -10.926571,-0.702831 -13.345618,-0.89897c-3.5305,-0.290122 -2.66422,-1.736646 -2.66422,-1.736646l0,-1.021557c0.126673,0 0.269691,-0.036776 0.43314,-0.049035a7.714797,7.714797 0 0 1 2.492599,0.371847c1.773423,0.482175 3.538673,0.956177 5.312095,1.430179a4.196555,4.196555 0 0 1 2.043114,-2.607013a6.513446,6.513446 0 0 1 3.293499,-0.755952c2.750031,0.036776 5.352957,1.340282 8.098902,1.471042a4.46216,4.46216 0 0 0 2.243339,-0.375933c0.375933,-0.187966 0.706917,-0.461744 1.074678,-0.670141a7.845556,7.845556 0 0 1 1.851061,-0.625193a40.764201,40.764201 0 0 0 5.291664,-1.708043c0.490347,-0.192053 1.062419,-0.539382 0.997039,-1.062419c-0.085811,-0.694659 -1.176833,-0.776383 -1.462869,-1.413835a0.817245,0.817245 0 0 1 0.03269,-0.723262c0.155277,0.028604 0.318726,0.061293 0.490347,0.102156c2.970687,0.6824 4.588833,0.952091 5.54501,3.424258z"/>
   <path id="svg_131" fill="#a36468" d="m221.781354,351.408329c-3.881916,1.773423 -12.667304,0 -12.667304,0l-3.698035,-0.21657c-4.789058,-0.306467 -12.85527,-0.817245 -15.703371,-1.058333c-4.155693,-0.343243 -3.134136,-2.043114 -3.134136,-2.043114l0,-10.301378l20.157358,-5.107784s7.968143,2.725513 10.150188,5.107784c2.071717,2.267856 3.268982,0.523037 6.983362,1.176833c0.18388,0.03269 0.375933,0.073552 0.576158,0.118501c3.510069,0.817245 5.414251,1.123712 6.537963,4.033106a13.116789,13.116789 0 0 1 0.543468,1.875578c1.013384,4.682816 -5.863736,4.64604 -9.745652,6.415376z"/>
   <path id="svg_132" opacity="0.1" d="m230.975365,343.117374a15.213023,15.213023 0 0 1 -2.267856,1.164575c-2.643789,1.205437 -5.160905,2.676479 -7.833297,3.816536s-5.553183,1.94913 -8.450318,1.736646c-1.511904,-0.110328 -3.060584,-0.490347 -4.49485,-0.049035a10.419879,10.419879 0 0 0 -2.51303,1.405662c-4.789058,-0.306467 -12.85527,-0.817245 -15.703371,-1.058333c-4.155693,-0.343243 -3.134136,-2.043114 -3.134136,-2.043114l0,-1.201351a5.107784,5.107784 0 0 1 0.510778,-0.057207a8.965182,8.965182 0 0 1 2.933911,0.437226l6.247841,1.683526a4.944335,4.944335 0 0 1 2.423133,-3.068757a7.6249,7.6249 0 0 1 3.877829,-0.890797c3.236292,0.044948 6.296876,1.577284 9.529082,1.73256a5.275319,5.275319 0 0 0 2.63153,-0.437226c0.445399,-0.224742 0.817245,-0.547554 1.26673,-0.788642a8.887544,8.887544 0 0 1 2.177959,-0.735521a48.908052,48.908052 0 0 0 6.19472,-2.010424c0.576158,-0.228829 1.250385,-0.637451 1.172747,-1.250385c-0.102156,-0.817245 -1.385231,-0.915315 -1.724388,-1.667181a0.984781,0.984781 0 0 1 0.040862,-0.849935c0.18388,0.03269 0.375933,0.073552 0.576158,0.118501c3.510069,0.784556 5.414251,1.103281 6.537963,4.012675z"/>
   <path id="svg_133" fill="#444053" d="m212.995966,280.720687l-1.091023,25.673765s-1.634491,5.242629 -0.74778,6.742275s2.38227,2.995204 1.838802,3.881916s-7.081431,10.473 -9.194011,6.795396s-4.196555,-19.61389 -4.196555,-19.61389l1.94913,-19.683356l11.441436,-3.796105z"/>
   <path id="svg_134" fill="#444053" d="m217.727817,216.754889l3.03198,4.053537l0,35.255967s0.886711,9.398322 0,11.33928s-5.381561,5.822874 -5.381561,5.822874l-3.77976,-19.409579l0.817245,-20.533291l5.312095,-16.528788z"/>
   <path id="svg_135" opacity="0.1" d="m212.995966,280.720687l-1.091023,25.673765s-1.634491,5.242629 -0.74778,6.742275s2.38227,2.995204 1.838802,3.881916s-7.081431,10.473 -9.194011,6.795396s-4.196555,-19.61389 -4.196555,-19.61389l1.94913,-19.683356l11.441436,-3.796105z"/>
   <path id="svg_136" opacity="0.1" d="m217.727817,216.754889l3.03198,4.053537l0,35.255967s0.886711,9.398322 0,11.33928s-5.381561,5.822874 -5.381561,5.822874l-3.77976,-19.409579l0.817245,-20.533291l5.312095,-16.528788z"/>
   <path id="svg_137" fill="#444053" d="m220.759797,201.717573l0,19.070422l-3.403827,14.845263s-1.091023,35.823953 -0.138932,40.179871s-3.268982,8.446231 -3.268982,8.446231s-2.451736,0.273777 -2.451736,2.177959s-4.086227,7.355209 -4.086227,7.355209l0.134845,10.62419s1.773423,19.887667 -0.952091,23.700117s0.952091,4.360004 0.952091,4.360004c-3.403827,11.167659 -19.748735,8.581077 -21.223863,7.355209s0,-25.334608 0,-25.334608s3.653087,-36.776044 6.513446,-38.410534s0.138932,-3.677604 1.091023,-6.129341s-0.952091,-9.124545 -0.952091,-9.124545s-0.817245,-7.902763 -2.860359,-11.715213s-1.773423,-14.301795 -1.773423,-14.301795s-5.720718,-7.628986 -7.420588,-10.62419s-2.794979,-10.759036 -2.386357,-16.618685c0.277863,-3.959554 2.357753,-9.72522 3.677604,-13.043237c0.633365,-1.589542 1.091023,-2.619272 1.091023,-2.619272l0.388192,0.102156l22.318972,5.843305l14.75128,3.861485z"/>
   <path id="svg_138" opacity="0.1" d="m222.8356,110.59471c-2.108493,0.604762 -4.123003,2.680565 -5.875995,5.201767l-0.457657,0a14.596003,14.596003 0 0 1 -12.667304,-7.326605a14.375347,14.375347 0 0 1 -1.283075,-2.921652c1.262644,-3.207688 2.19839,-5.994495 2.19839,-5.994495s24.521449,9.202183 18.085641,11.040986z"/>
   <path id="svg_139" fill="#efb7b9" d="m231.11021,100.379142a14.608262,14.608262 0 1 1 -27.328687,-7.15907a14.273191,14.273191 0 0 1 1.544594,-2.23108a14.783969,14.783969 0 0 1 3.358879,-2.950256a14.608262,14.608262 0 0 1 22.404783,11.269814c0.008172,0.359588 0.020431,0.71509 0.020431,1.070591z"/>
   <path id="svg_140" opacity="0.1" d="m218.835184,135.349073l-0.049035,0.449485l-6.795396,-10.62419c-0.711004,1.679439 -1.107368,2.803152 -1.107368,2.803152s-16.140597,-12.152439 -13.586705,-12.969685c0.858108,-0.273777 1.985906,-2.112579 3.101446,-4.42947l0.138932,-0.294208c1.185006,3.5305 8.070298,10.587414 10.934744,13.415083c0.330984,0.326898 0.604762,0.596589 0.817245,0.792728l0.437226,0.408623l0.228829,0.228829c1.041988,1.074678 5.438768,5.814701 5.880081,10.219654z"/>
   <path id="svg_141" fill="#dce6f2" d="m223.914364,171.397768l-0.743693,23.933032l-0.130759,4.261935s-8.809906,-0.817245 -17.031394,-1.716215c-6.619688,-0.723262 -12.859357,-1.503732 -13.81962,-1.961389c-1.225868,-0.576158 -3.853312,-1.021557 -5.925029,-1.303506c-1.601801,-0.21657 -2.860359,-0.330984 -2.860359,-0.330984s-0.469916,0.138932 -1.193178,0.269691c-1.577284,0.286036 -4.347746,0.518951 -5.961805,-0.882625c-2.063545,-1.793854 3.358879,-8.311386 4.71142,-9.876411l0.298295,-0.339157l-0.510778,-4.719592l-1.328024,-12.23825s-0.817245,-7.048742 -2.043114,-10.828502a19.973478,19.973478 0 0 1 -0.706917,-3.289413a26.347992,26.347992 0 0 1 0.686486,-10.32181a22.506939,22.506939 0 0 0 0.735521,-4.368177c0.204311,-3.77976 11.747903,-18.388022 14.608262,-19.716046a6.063961,6.063961 0 0 0 2.925739,-2.917566a5.573614,5.573614 0 0 0 0.445399,-1.270817c1.225868,-5.312095 4.327314,-3.203602 4.327314,-3.203602c0.74778,4.155693 12.324061,15.155816 12.324061,15.155816l0.228829,0.228829c1.14823,1.176833 6.264186,6.701412 5.900512,11.416918a13.840051,13.840051 0 0 0 0.772297,5.164991a87.343103,87.343103 0 0 1 4.024934,22.882872l0.265605,5.969978z"/>
   <path id="svg_142" opacity="0.1" d="m207.512249,142.978059s-2.860359,6.946586 -5.005628,8.070298s6.027185,2.370012 5.005628,-8.070298z"/>
   <path id="svg_143" opacity="0.1" d="m209.657518,155.95183s-6.537963,0.817245 -6.537963,2.043114s6.537963,-2.043114 6.537963,-2.043114z"/>
   <path id="svg_144" opacity="0.1" d="m216.501948,163.919973s-9.500478,20.226824 -12.156525,20.839758s12.156525,-20.839758 12.156525,-20.839758z"/>
   <path id="svg_145" opacity="0.1" d="m212.542394,126.759824l-7.857815,3.416086l-9.484133,-14.326312a5.573614,5.573614 0 0 0 0.445399,-1.270817c1.225868,-5.312095 4.327314,-3.203602 4.327314,-3.203602c0.74778,4.155693 12.324061,15.155816 12.324061,15.155816l0.245174,0.228829z"/>
   <path id="svg_146" fill="#dce6f2" d="m212.951017,125.942578l-7.857815,3.416086l-9.484133,-14.326312a5.573614,5.573614 0 0 0 0.445399,-1.270817c1.225868,-5.312095 4.327314,-3.203602 4.327314,-3.203602c0.74778,4.155693 12.324061,15.155816 12.324061,15.155816l0.245174,0.228829z"/>
   <path id="svg_147" opacity="0.1" d="m223.039912,199.592735s-8.809906,-0.817245 -17.031394,-1.716215l14.75128,3.861485l0,4.49485c-0.645624,0.58433 -1.205437,0.886711 -1.569111,0.731435c-1.69987,-0.71509 -15.572611,-2.962515 -15.572611,-2.962515s-8.05804,-4.086227 -16.753531,-8.9897a6.713671,6.713671 0 0 1 -0.612934,-0.384105a9.659841,9.659841 0 0 1 -2.574323,-2.578409c-1.605887,-2.325063 -2.390443,-5.312095 -2.7296,-8.24192a35.640072,35.640072 0 0 1 -0.212484,-5.058749a41.479291,41.479291 0 0 1 0.523037,-5.716632a187.999135,187.999135 0 0 1 -1.225868,-22.065626c0.102156,-11.441436 10.828502,-15.527663 10.828502,-15.527663c19.716046,-1.736646 13.60305,30.135925 13.60305,30.135925s-1.140057,8.9897 -1.450611,9.909101s-1.426093,2.451736 -1.274903,4.597005s3.918692,4.71142 3.918692,4.71142s3.677604,1.724388 5.193595,4.27828c1.103281,1.883751 8.270524,4.437643 12.319975,6.2601l-0.130759,4.261935z"/>
   <path id="svg_148" opacity="0.1" d="m229.643255,91.307718a4.625609,4.625609 0 0 1 -0.408623,1.953217a12.074801,12.074801 0 0 1 -0.727348,1.454697a6.701412,6.701412 0 0 1 -1.789767,2.222908c-0.943918,0.674227 -2.137097,0.862194 -3.268982,1.135971s-2.308718,0.711004 -2.954342,1.675353a5.85965,5.85965 0 0 0 -0.690572,2.002251a4.306883,4.306883 0 0 1 -0.817245,1.936872a1.605887,1.605887 0 0 1 -1.912354,0.457657a1.932785,1.932785 0 0 1 -0.739607,-0.952091c-0.46583,-1.05016 -0.58433,-2.214735 -0.772297,-3.34662s-0.453571,-2.29646 -1.14823,-3.207688s-1.924613,-1.511904 -3.015636,-1.156402a2.905307,2.905307 0 0 0 -1.634491,1.585456a9.087769,9.087769 0 0 0 -0.61702,2.255597q-0.760038,4.159779 -1.793854,8.270524a0.760038,0.760038 0 0 1 -0.134845,0.310553a0.588417,0.588417 0 0 1 -0.408623,0.171622c-0.915315,0.122587 -1.793854,-0.518951 -2.717341,-0.449485a1.560939,1.560939 0 0 0 -0.28195,0.044948a14.600089,14.600089 0 0 1 1.475128,-16.671806l0.073552,-0.020431a4.404953,4.404953 0 0 0 1.634491,-1.029729a17.252051,17.252051 0 0 0 1.634491,-1.891923l0.326898,-0.408623a18.637282,18.637282 0 0 1 3.187257,-3.027894a3.268982,3.268982 0 0 1 1.086936,-0.588417a3.219947,3.219947 0 0 1 1.029729,-0.03269a25.976145,25.976145 0 0 0 4.253762,0.159363a27.291911,27.291911 0 0 1 2.987032,-0.302381c2.586582,0.073552 4.793144,1.900096 6.427635,3.902347c0.878539,1.025643 1.663094,2.206563 1.716215,3.546845z"/>
   <path id="svg_149" fill="#965d7b" d="m201.873256,93.608264c-0.567986,0.93166 -1.593629,1.565025 -1.977734,2.586582c-0.563899,1.4833 0.388192,3.330275 -0.486261,4.654213c-0.290122,0.445399 -0.768211,0.776383 -0.93166,1.287162c-0.277863,0.862194 0.482175,1.781595 0.286036,2.668306s-1.3648,1.634491 -1.054247,2.500771a1.634491,1.634491 0 0 0 0.89897,0.817245a3.514155,3.514155 0 0 0 2.043114,0.453571c1.11554,-0.18388 1.945044,-1.278989 3.076929,-1.360714c0.919401,-0.06538 1.79794,0.572072 2.713255,0.453571a0.612934,0.612934 0 0 0 0.408623,-0.175708a0.706917,0.706917 0 0 0 0.134845,-0.310553q1.029729,-4.106658 1.79794,-8.270524a8.907975,8.907975 0 0 1 0.612934,-2.255597a2.929825,2.929825 0 0 1 1.634491,-1.585456c1.091023,-0.351416 2.316891,0.245174 3.015636,1.156402s0.96435,2.075803 1.152316,3.207688s0.306467,2.29646 0.768211,3.34662a1.953217,1.953217 0 0 0 0.743693,0.956177c0.612934,0.355502 1.438352,0.073552 1.908268,-0.457657a4.261935,4.261935 0 0 0 0.817245,-1.940958a5.835132,5.835132 0 0 1 0.690572,-1.998165c0.645624,-0.96435 1.826543,-1.401576 2.954342,-1.675353s2.316891,-0.46583 3.268982,-1.140057a6.72593,6.72593 0 0 0 1.789767,-2.218821c0.604762,-1.054247 1.168661,-2.19839 1.119626,-3.412c-0.053121,-1.323938 -0.837677,-2.504857 -1.675353,-3.534586c-1.634491,-2.002251 -3.84514,-3.828795 -6.431721,-3.898261a25.416332,25.416332 0 0 0 -2.987032,0.302381a25.567523,25.567523 0 0 1 -4.253762,-0.163449a3.342534,3.342534 0 0 0 -1.029729,0.036776a3.081015,3.081015 0 0 0 -1.08285,0.588417a18.645454,18.645454 0 0 0 -3.191343,3.023808a23.418167,23.418167 0 0 1 -1.969561,2.288287a4.433556,4.433556 0 0 1 -1.634491,1.033815c-0.408623,0.114414 -0.817245,0.03269 -1.205437,0.159363c-1.205437,0.380019 -1.3648,1.953217 -1.924613,2.876704z"/>
   <path id="svg_150" opacity="0.1" d="m241.223622,104.718715c-3.268982,0.600675 -5.97815,-2.043114 -7.477796,-3.971813a16.026183,16.026183 0 0 1 -1.254472,-1.846975l11.22078,2.116666l0.453571,0.085811s2.063545,2.700996 -2.942083,3.616311z"/>
   <g transform="matrix(0.40862270583801674,0,0,0.40862270583801674,0,0) " id="svg_151" opacity="0.1">
    <path id="svg_152" d="m486.423377,253.622385a8.33,8.33 0 0 0 -0.58,-3.84c0,0.1 -0.09,0.2 -0.12,0.3c-0.43,1.34 0.15,2.73 0.52,4.12a3,3 0 0 0 0.18,-0.58z"/>
    <path id="svg_153" d="m488.803377,237.252385a22.22,22.22 0 0 0 0.08,4.15a22.28,22.28 0 0 0 -0.08,-4.15z"/>
    <path id="svg_154" d="m558.253377,227.902385a16.4,16.4 0 0 1 -4.38,5.44c-2.31,1.65 -5.22,2.11 -8,2.78s-5.65,1.74 -7.23,4.1a14.41,14.41 0 0 0 -1.69,4.9a10.47,10.47 0 0 1 -2,4.75c-1.15,1.3 -3.17,2 -4.67,1.12a4.78,4.78 0 0 1 -1.82,-2.34c-1.13,-2.57 -1.43,-5.41 -1.88,-8.19s-1.12,-5.62 -2.82,-7.85s-4.71,-3.7 -7.38,-2.83a7.14,7.14 0 0 0 -4,3.88a21.8,21.8 0 0 0 -1.5,5.52q-1.87,10.19 -4.4,20.24a1.73,1.73 0 0 1 -0.33,0.76a1.5,1.5 0 0 1 -1,0.43c-2.24,0.29 -4.39,-1.27 -6.64,-1.11c-2.77,0.2 -4.8,2.88 -7.53,3.32a8.45,8.45 0 0 1 -5,-1.11a5.35,5.35 0 0 1 -1.83,-1.3a2.7,2.7 0 0 0 -0.37,2.33a3.9,3.9 0 0 0 2.2,2a8.45,8.45 0 0 0 5,1.11c2.73,-0.44 4.76,-3.12 7.53,-3.32c2.25,-0.16 4.4,1.4 6.64,1.11a1.5,1.5 0 0 0 1,-0.43a1.73,1.73 0 0 0 0.33,-0.76q2.52,-10 4.4,-20.24a21.8,21.8 0 0 1 1.5,-5.52a7.14,7.14 0 0 1 4,-3.88c2.67,-0.87 5.67,0.6 7.38,2.83s2.36,5.08 2.82,7.85s0.75,5.62 1.88,8.19a4.78,4.78 0 0 0 1.82,2.34c1.5,0.87 3.52,0.18 4.67,-1.12a10.47,10.47 0 0 0 2,-4.75a14.41,14.41 0 0 1 1.69,-4.9c1.58,-2.36 4.47,-3.42 7.23,-4.1s5.67,-1.13 8,-2.78a16.4,16.4 0 0 0 4.38,-5.44c1.48,-2.57 2.86,-5.37 2.74,-8.34a10.74,10.74 0 0 0 -0.12,-1.14a19.65,19.65 0 0 1 -2.62,6.45z"/>
   </g>
   <path id="svg_155" opacity="0.1" d="m229.250977,93.248676a14.43664,14.43664 0 0 1 1.818371,6.068047c-3.640828,-2.043114 -7.065087,-4.286452 -8.793561,-5.066922c-3.011549,-1.360714 -14.273191,-1.156402 -18.506522,-1.029729a14.273191,14.273191 0 0 1 1.544594,-2.23108a14.783969,14.783969 0 0 1 3.371137,-2.950256a14.616434,14.616434 0 0 1 20.586412,5.201767l-0.020431,0.008172z"/>
   <path id="svg_156" opacity="0.1" d="m242.245179,102.986155c-1.965475,0.604762 -5.173163,-0.563899 -8.499352,-2.239252a16.026183,16.026183 0 0 1 -1.254472,-1.846975l11.22078,2.116666c0.743693,0.506692 0.93166,1.229954 -1.466956,1.969561z"/>
   <path id="svg_157" fill="#444053" d="m217.372315,79.081726s-10.726346,-0.612934 -13.741982,5.209939l-0.486261,5.160905l-0.817245,-0.089897l-0.163449,3.510069s16.393943,-0.71509 20.124668,0.968436s15.323351,10.166533 19.969392,8.736353s-0.408623,-2.758203 -0.408623,-2.758203s-6.394945,-2.709169 -6.394945,-4.834007s-1.585456,-13.349704 -18.081555,-15.903596z"/>
   <path id="svg_158" opacity="0.1" d="m196.683747,270.398877s6.84443,6.640119 9.806945,6.129341c0,0 -8.376765,-0.71509 -9.806945,-6.129341z"/>
   <path id="svg_159" opacity="0.1" d="m195.253568,273.475806s0.612934,3.416086 2.247425,3.081015s-2.247425,-3.081015 -2.247425,-3.081015z"/>
   <path id="svg_160" opacity="0.1" d="m205.979914,330.568571s-9.717048,7.55952 -8.078471,7.763831s8.078471,-7.763831 8.078471,-7.763831z"/>
   <polygon id="svg_161" fill="#6c63ff" points="218.9781951904297,180.53457641601562 250.442138671875,175.41453552246094 250.442138671875,205.20314025878906 220.5473175048828,203.63809204101562 218.9781951904297,180.53457641601562 "/>
   <polygon id="svg_162" opacity="0.05" points="218.9781951904297,180.53457641601562 250.442138671875,175.41453552246094 250.442138671875,205.20314025878906 220.5473175048828,203.63809204101562 218.9781951904297,180.53457641601562 "/>
   <polygon id="svg_163" fill="#6c63ff" points="250.442138671875,175.41453552246094 288.17437744140625,178.2381134033203 286.08631896972656,204.16114807128906 250.442138671875,205.20314025878906 250.442138671875,175.41453552246094 "/>
   <polygon id="svg_164" opacity="0.1" points="250.442138671875,175.41453552246094 288.17437744140625,178.2381134033203 286.08631896972656,204.16114807128906 250.442138671875,205.20314025878906 250.442138671875,175.41453552246094 "/>
   <polygon id="svg_165" fill="#6c63ff" points="262.0429382324219,166.32266235351562 250.442138671875,175.41453552246094 288.17437744140625,178.2381134033203 294.3404998779297,168.93377685546875 262.0429382324219,166.32266235351562 "/>
   <polygon id="svg_166" fill="#6c63ff" points="207.58580017089844,170.60504150390625 235.91152954101562,167.15626525878906 250.442138671875,175.41453552246094 218.9781951904297,180.53457641601562 207.58580017089844,170.60504150390625 "/>
   <polygon id="svg_167" fill="#6c63ff" points="257.3396911621094,183.14976501464844 257.3396911621094,223.87718200683594 242.60067749023438,222.3652801513672 236.18939208984375,221.7115020751953 234.2361602783203,221.50717163085938 227.82896423339844,220.8492889404297 218.9781951904297,219.942138671875 218.9781951904297,180.53457641601562 250.4380645751953,182.67576599121094 257.3396911621094,183.14976501464844 "/>
   <polygon id="svg_168" fill="#6c63ff" points="288.17437744140625,178.2381134033203 288.17437744140625,217.95623779296875 276.361083984375,220.22409057617188 270.6158447265625,221.32737731933594 257.3396911621094,223.87718200683594 257.3396911621094,183.14976501464844 288.17437744140625,178.2381134033203 "/>
   <polygon id="svg_169" opacity="0.05" points="288.17437744140625,178.2381134033203 288.17437744140625,217.95623779296875 276.361083984375,220.22409057617188 270.6158447265625,221.32737731933594 257.3396911621094,223.87718200683594 257.3396911621094,183.14976501464844 288.17437744140625,178.2381134033203 "/>
   <polygon id="svg_170" fill="#6c63ff" points="207.58580017089844,189.10748291015625 218.9781951904297,180.53457641601562 257.3396911621094,183.14976501464844 251.69253540039062,192.66250610351562 207.58580017089844,189.10748291015625 "/>
   <polygon id="svg_171" opacity="0.1" fill="#fff" points="207.58580017089844,189.10748291015625 218.9781951904297,180.53457641601562 257.3396911621094,183.14976501464844 251.69253540039062,192.66250610351562 207.58580017089844,189.10748291015625 "/>
   <polygon id="svg_172" fill="#6c63ff" points="288.17437744140625,178.2381134033203 257.3396911621094,183.14976501464844 267.37547302246094,192.13946533203125 300.40443420410156,186.59854125976562 288.17437744140625,178.2381134033203 "/>
   <polygon id="svg_173" opacity="0.1" fill="#fff" points="288.17437744140625,178.2381134033203 257.3396911621094,183.14976501464844 267.37547302246094,192.13946533203125 300.40443420410156,186.59854125976562 288.17437744140625,178.2381134033203 "/>
   <polygon id="svg_174" opacity="0.1" fill="#fff" points="276.361083984375,220.22409057617188 270.6158447265625,221.32737731933594 270.6158447265625,212.84030151367188 275.99742126464844,211.48365783691406 276.361083984375,220.22409057617188 "/>
   <polygon id="svg_175" opacity="0.1" fill="#fff" points="242.60067749023438,216.7508087158203 242.60067749023438,222.3652801513672 236.18939208984375,221.7115020751953 236.18939208984375,216.7508087158203 242.60067749023438,216.7508087158203 "/>
   <polygon id="svg_176" opacity="0.1" fill="#fff" points="234.2361602783203,218.52015686035156 234.2361602783203,221.50717163085938 227.82896423339844,220.8492889404297 227.82896423339844,218.52015686035156 234.2361602783203,218.52015686035156 "/>
   <path id="svg_177" opacity="0.1" d="m253.482303,213.771943c-4.392694,5.618562 -18.8988,1.736646 -18.8988,1.736646l-10.779467,-11.245297l-1.462869,-1.524163l2.860359,-5.312095s0.817245,0.269691 2.182045,0.743693c7.224449,2.525288 29.796768,10.87345 26.098732,15.601215z"/>
   <path id="svg_178" fill="#efb7b9" d="m253.073681,212.954697c-4.392694,5.618562 -18.8988,1.736646 -18.8988,1.736646l-10.779467,-11.245297l-1.462869,-1.524163l2.860359,-5.312095s0.817245,0.269691 2.182045,0.743693c7.224449,2.525288 29.796768,10.87345 26.098732,15.601215z"/>
   <path id="svg_179" opacity="0.1" d="m226.958604,197.353482c-0.596589,1.716215 -2.112579,4.257849 -3.579535,6.092565l-1.462869,-1.524163l2.860359,-5.312095s0.821332,0.269691 2.182045,0.743693z"/>
   <path id="svg_180" fill="#dce6f2" d="m191.269496,133.804479s-10.726346,4.086227 -10.828502,15.527663a187.999135,187.999135 0 0 0 1.225868,22.065626s-3.06467,17.059998 5.618562,21.96347s16.753531,8.9897 16.753531,8.9897s13.872741,2.247425 15.576698,2.962515s7.6249,-8.478921 6.705499,-10.011256s-13.549929,-5.312095 -15.049574,-7.865987s-5.193595,-4.274194 -5.193595,-4.274194s-3.767501,-2.570237 -3.918692,-4.715506s0.960263,-3.677604 1.274903,-4.597005s1.454697,-9.909101 1.454697,-9.909101s6.096651,-31.893002 -13.619395,-30.135925z"/>
   <path id="svg_181" opacity="0.1" d="m196.172969,171.683804s-14.506106,1.634491 -13.382394,6.742275c0,0 5.51232,-5.152732 13.382394,-6.742275z"/>
   <path id="svg_182" opacity="0.1" d="m196.172969,173.726918s-8.233748,6.027185 -6.721844,6.435808s6.721844,-6.435808 6.721844,-6.435808z"/>
   <path id="svg_183" opacity="0.1" d="m199.850573,176.178654s-2.349581,4.225159 -1.021557,4.004503s1.021557,-4.004503 1.021557,-4.004503z"/>
   <path id="svg_184" fill="#6c63ff" d="m350.885698,84.532753s-15.527663,-0.935746 -13.713378,9.958135c0,0 -0.363674,1.924613 1.381145,2.799066c0,0 0.028604,-0.817245 1.593629,-0.535296a7.154984,7.154984 0 0 0 1.687612,0.081725a3.501897,3.501897 0 0 0 2.067631,-0.854021l0,0s4.368177,-1.802026 6.068047,-8.944751c0,0 1.258558,-1.560939 1.225868,-1.961389l-2.623358,1.123712s0.894884,1.891923 0.187966,3.465121c0,0 -0.081725,-3.395655 -0.588417,-3.318016c-0.102156,0 -1.360714,0.657883 -1.360714,0.657883s1.540508,3.293499 0.375933,5.692114c0,0 0.441313,-4.06171 -0.858108,-5.455113l-1.846975,1.078764s1.802026,3.403827 0.580244,6.182462c0,0 0.314639,-4.261935 -0.968436,-5.920943l-1.675353,1.303506s1.695784,3.358879 0.661969,5.663511c0,0 -0.134845,-4.96068 -1.025643,-5.336613c0,0 -1.462869,1.291248 -1.683526,1.822457c0,0 1.156402,2.451736 0.437226,3.722553c0,0 -0.441313,-3.305758 -0.817245,-3.322103c0,0 -1.458783,2.190218 -1.609973,3.677604a7.951798,7.951798 0 0 1 1.254472,-3.898261a4.376349,4.376349 0 0 0 -2.23108,1.156402s0.224742,-1.54868 2.590668,-1.683526c0,0 1.225868,-1.663094 1.528249,-1.76525c0,0 -2.353667,-0.196139 -3.77976,0.437226c0,0 1.254472,-1.458783 4.2129,-0.817245l1.634491,-1.348455s-3.09736,-0.408623 -4.413125,0.044948c0,0 1.511904,-1.291248 4.858524,-0.351416l1.79794,-1.074678s-2.639703,-0.572072 -4.2129,-0.363674c0,0 1.659008,-0.894884 4.740023,0.073552l1.287162,-0.576158s-1.936872,-0.380019 -2.500771,-0.441313s-0.596589,-0.21657 -0.596589,-0.21657a6.685067,6.685067 0 0 1 3.632656,0.408623s2.758203,-0.992953 2.700996,-1.164575z"/>
   <path id="svg_185" opacity="0.1" fill="#6c63ff" d="m398.065275,139.018505s-15.527663,-0.935746 -13.713378,9.958135c0,0 -0.363674,1.924613 1.381145,2.799066c0,0 0.028604,-0.817245 1.597715,-0.535296a7.154984,7.154984 0 0 0 1.687612,0.081725a3.49781,3.49781 0 0 0 2.043114,-0.849935l0,0s4.372263,-1.806112 6.072133,-8.948837c0,0 1.254472,-1.556853 1.205437,-1.957303l-2.623358,1.119626s0.894884,1.891923 0.192053,3.465121c0,0 -0.085811,-3.395655 -0.588417,-3.318016c-0.102156,0 -1.3648,0.657883 -1.3648,0.657883s1.544594,3.297585 0.380019,5.692114c0,0 0.441313,-4.06171 -0.862194,-5.455113l-1.826543,1.066505s1.802026,3.403827 0.580244,6.182462c0,0 0.314639,-4.261935 -0.968436,-5.920943l-1.671267,1.307593s1.691698,3.354792 0.661969,5.659424c0,0 -0.134845,-4.96068 -1.025643,-5.336613c0,0 -1.462869,1.291248 -1.687612,1.822457c0,0 1.160488,2.451736 0.441313,3.722553c0,0 -0.441313,-3.305758 -0.817245,-3.322103c0,0 -1.458783,2.190218 -1.609973,3.677604a7.976315,7.976315 0 0 1 1.258558,-3.898261a4.39678,4.39678 0 0 0 -2.235166,1.156402s0.228829,-1.54868 2.594754,-1.683526c0,0 1.205437,-1.663094 1.528249,-1.76525c0,0 -2.353667,-0.196139 -3.77976,0.437226c0,0 1.254472,-1.458783 4.208814,-0.796814l1.634491,-1.348455s-3.101446,-0.408623 -4.413125,0.044948c0,0 1.511904,-1.291248 4.858524,-0.351416l1.79794,-1.074678s-2.643789,-0.567986 -4.216986,-0.363674c0,0 1.663094,-0.894884 4.74411,0.073552l1.287162,-0.576158s-1.936872,-0.380019 -2.504857,-0.441313s-0.596589,-0.21657 -0.596589,-0.21657a6.697326,6.697326 0 0 1 3.636742,0.408623s2.762289,-1.001126 2.713255,-1.172747z"/>
   <path id="svg_186" opacity="0.1" fill="#6c63ff" d="m303.734724,129.346405s3.575449,-15.155816 -7.473709,-15.208937c0,0 -1.834716,-0.686486 -2.991118,0.882625c0,0 0.788642,0.167535 0.253346,1.663094a7.273484,7.273484 0 0 0 -0.36776,1.634491a3.510069,3.510069 0 0 0 0.486261,2.177959l0,0s1.033815,4.617437 7.763831,7.510485c0,0 1.323938,1.503732 1.724388,1.520076l-0.653796,-2.774548s-2.018596,0.559813 -3.448776,-0.408623c0,0 3.362965,0.494433 3.367051,0c0,-0.102156 -0.408623,-1.454697 -0.408623,-1.454697s-3.510069,0.956177 -5.675769,-0.600675c0,0 3.926864,1.127799 5.524579,0.085811l-0.735521,-2.010424s-3.677604,1.197265 -6.19472,-0.482175c0,0 4.14752,1.037902 6.002668,0.057207l-1.001126,-1.871492s-3.59588,1.095109 -5.692114,-0.314639c0,0 4.903472,0.711004 5.434682,-0.098069c0,0 -1.021557,-1.663094 -1.507818,-1.973648c0,0 -2.59884,0.727348 -3.742984,-0.200225c0,0 3.330275,0.126673 3.407913,-0.224742c0,0 -1.908268,-1.810199 -3.362965,-2.218821a8.009005,8.009005 0 0 1 3.632656,1.904182a4.409039,4.409039 0 0 0 -0.760038,-2.398615s1.487387,0.490347 1.225868,2.860359c0,0 1.430179,1.471042 1.475128,1.806112c0,0 0.592503,-2.284201 0.212484,-3.800191c0,0 1.225868,1.487387 0.069466,4.286452l1.046074,1.859233s0.948005,-2.982946 0.706917,-4.355918c0,0 1.017471,1.708043 -0.482175,4.846265l0.755952,1.957303s1.009298,-2.508943 1.074678,-4.086227c0,0 0.600675,1.789767 -0.882625,4.662385l0.351416,1.3648s0.702831,-1.842888 0.858108,-2.390443s0.314639,-0.551641 0.314639,-0.551641a6.69324,6.69324 0 0 1 -1.017471,3.514155s0.535296,2.852186 0.711004,2.831755z"/>
   <path id="svg_187" opacity="0.1" fill="#6c63ff" d="m269.729142,134.511397s-12.471165,-9.328856 -16.929239,0.776383c0,0 -1.360714,1.409748 -0.384105,3.09736c0,0 0.46583,-0.657883 1.634491,0.43314a7.154984,7.154984 0 0 0 1.3648,0.997039a3.505983,3.505983 0 0 0 2.194304,0.408623l0,0s4.641954,0.894884 9.986739,-4.135262c0,0 1.908268,-0.612934 2.088062,-0.972522l-2.81541,-0.494433s-0.294208,2.071717 -1.744819,2.999291c0,0 1.793854,-2.884876 1.328024,-3.093274c-0.093983,-0.044948 -1.499645,-0.204311 -1.499645,-0.204311s-0.523037,3.604052 -2.811324,4.964766c0,0 2.602927,-3.150481 2.280115,-5.030146l-2.137097,-0.114414s-0.363674,3.836967 -2.91348,5.487803c0,0 2.602927,-3.387482 2.451736,-5.47963l-2.116666,0.171622s-0.429054,3.730725 -2.557978,5.087353c0,0 2.611099,-4.216986 2.075803,-5.017887c0,0 -1.932785,0.273777 -2.410874,0.592503c0,0 -0.371847,2.672392 -1.679439,3.350706c0,0 1.450611,-3.003377 1.156402,-3.211774c0,0 -2.423133,1.025643 -3.375224,2.194304a7.980401,7.980401 0 0 1 3.19543,-2.566151a4.400867,4.400867 0 0 0 -2.500771,-0.261519s1.037902,-1.168661 3.089188,0.020431c0,0 1.920527,-0.723262 2.247425,-0.633365c0,0 -1.859233,-1.458783 -3.399741,-1.712129c0,0 1.855147,-0.53121 3.959554,1.634491l2.120752,-0.21657s-2.357753,-2.043114 -3.710294,-2.386357c0,0 1.973648,-0.24926 4.249676,2.374098l2.092148,0.093983s-1.891923,-1.928699 -3.318016,-2.623358c0,0 1.875578,0.163449 3.918692,2.668306l1.393403,0.224742s-1.409748,-1.381145 -1.851061,-1.740733s-0.380019,-0.510778 -0.380019,-0.510778a6.713671,6.713671 0 0 1 2.81541,2.337322s2.839928,0.657883 2.893049,0.490347z"/>
   <path id="svg_188" opacity="0.1" fill="#6c63ff" d="m311.249295,47.838434s-12.471165,-9.332943 -16.929239,0.776383c0,0 -1.360714,1.409748 -0.384105,3.09736c0,0 0.46583,-0.657883 1.634491,0.43314a7.269398,7.269398 0 0 0 1.368886,0.992953a3.501897,3.501897 0 0 0 2.194304,0.408623l0,0s4.641954,0.894884 9.986739,-4.139348c0,0 1.908268,-0.608848 2.083976,-0.972522l-2.81541,-0.486261s-0.290122,2.071717 -1.744819,2.999291c0,0 1.79794,-2.884876 1.33211,-3.093274c-0.093983,-0.044948 -1.499645,-0.204311 -1.499645,-0.204311s-0.539382,3.612225 -2.827669,4.964766c0,0 2.59884,-3.150481 2.280115,-5.030146l-2.137097,-0.114414s-0.36776,3.836967 -2.91348,5.483717c0,0 2.602927,-3.387482 2.451736,-5.47963l-2.112579,0.171622s-0.43314,3.734812 -2.562064,5.091439c0,0 2.615185,-4.216986 2.07989,-5.017887c0,0 -1.932785,0.273777 -2.410874,0.592503c0,0 -0.371847,2.672392 -1.679439,3.350706c0,0 1.450611,-3.003377 1.156402,-3.215861c0,0 -2.423133,1.029729 -3.375224,2.19839a7.943625,7.943625 0 0 1 3.19543,-2.566151a4.372263,4.372263 0 0 0 -2.504857,-0.261519s1.041988,-1.168661 3.093274,0.020431c0,0 1.920527,-0.727348 2.247425,-0.633365c0,0 -1.859233,-1.458783 -3.399741,-1.716215c0,0 1.851061,-0.527123 3.955468,1.634491l2.120752,-0.21657s-2.353667,-2.043114 -3.710294,-2.390443c0,0 1.973648,-0.245174 4.253762,2.378184l2.092148,0.089897s-1.891923,-1.928699 -3.322103,-2.619272c0,0 1.879664,0.163449 3.922778,2.668306l1.389317,0.224742s-1.413835,-1.3648 -1.855147,-1.716215s-0.380019,-0.506692 -0.380019,-0.506692a6.701412,6.701412 0 0 1 2.81541,2.337322s2.839928,0.621107 2.909394,0.46583z"/>
   <path id="svg_189" opacity="0.1" fill="#6c63ff" d="m358.902875,59.659889s-4.985197,-14.755366 -14.387605,-8.95701c0,0 -1.920527,0.408623 -2.071717,2.333236c0,0 0.755952,-0.277863 1.091023,1.274903a7.355209,7.355209 0 0 0 0.559813,1.597715a3.538673,3.538673 0 0 0 1.569111,1.589542l0,0s3.318016,3.371137 10.575156,2.255597c0,0 1.91644,0.580244 2.267856,0.380019l-2.043114,-2.006337s-1.413835,1.540508 -3.138222,1.479214c0,0 3.117791,-1.356627 2.860359,-1.793854c-0.053121,-0.085811 -1.119626,-1.013384 -1.119626,-1.013384s-2.476254,2.668306 -5.132301,2.492599c0,0 3.926864,-1.119626 4.727765,-2.860359l-1.691698,-1.303506s-2.476254,2.950256 -5.51232,2.860359c0,0 4.086227,-1.311679 5.120043,-3.125964l-1.838802,-1.058333s-2.451736,2.831755 -4.993369,2.741858c0,0 4.543884,-1.989993 4.556143,-2.954342c0,0 -1.744819,-0.870366 -2.320977,-0.878539c0,0 -1.822457,1.989993 -3.268982,1.810199c0,0 2.893049,-1.654922 2.770462,-1.994079c0,0 -2.574323,-0.527123 -4.024934,-0.102156a7.964057,7.964057 0 0 1 4.086227,-0.306467a4.409039,4.409039 0 0 0 -1.91644,-1.634491s1.520076,-0.371847 2.537547,1.769336c0,0 1.994079,0.494433 2.206563,0.751866c0,0 -0.702831,-2.251511 -1.826543,-3.338448c0,0 1.826543,0.61702 2.325063,3.604052l1.871492,1.021557s-0.772297,-3.027894 -1.703957,-4.086227c0,0 1.769336,0.915315 2.153442,4.368177l1.675353,1.262644s-0.46583,-2.66422 -1.250385,-4.045365c0,0 1.454697,1.201351 1.716215,4.425384l1.017471,0.972522s-0.375933,-1.936872 -0.53121,-2.484426s-0.028604,-0.58433 -0.028604,-0.58433a6.738188,6.738188 0 0 1 0.992953,3.522328s1.977734,2.120752 2.120752,2.01451z"/>
   <path id="svg_190" opacity="0.1" fill="#6c63ff" d="m326.368335,60.387238s-15.486801,-1.724388 -14.207811,9.263477c0,0 -0.461744,1.904182 1.225868,2.860359c0,0 0.069466,-0.817245 1.634491,-0.449485a7.518658,7.518658 0 0 0 1.683526,0.167535a3.514155,3.514155 0 0 0 2.104407,-0.74778l0,0s4.458074,-1.58137 6.537963,-8.630112c0,0 1.33211,-1.491473 1.303506,-1.896009l-2.676479,0.988867s0.817245,1.932785 0,3.469207c0,0 0.085811,-3.395655 -0.408623,-3.342534c-0.102156,0 -1.393403,0.588417 -1.393403,0.588417s1.372972,3.371137 0.089897,5.720718c0,0 0.645624,-4.037192 -0.58433,-5.491889l-1.900096,0.980694s1.634491,3.493724 0.265605,6.206979c0,0 0.53121,-4.241504 -0.666055,-5.961805l-1.736646,1.225868s1.520076,3.436517 0.371847,5.688028c0,0 0.118501,-4.96068 -0.751866,-5.381561c0,0 -1.528249,1.225868 -1.777509,1.73256c0,0 1.033815,2.492599 0.253346,3.738898c0,0 -0.273777,-3.322103 -0.633365,-3.354792c0,0 -1.569111,2.112579 -1.79794,3.604052a7.955884,7.955884 0 0 1 1.454697,-3.832881a4.39678,4.39678 0 0 0 -2.288287,1.041988s0.302381,-1.532335 2.672392,-1.54868c0,0 1.287162,-1.597715 1.634491,-1.683526c0,0 -2.341408,-0.314639 -3.800191,0.245174c0,0 1.328024,-1.39749 4.24559,-0.58433l1.720302,-1.262644s-3.109619,-0.629279 -4.425384,-0.220656c0,0 1.577284,-1.225868 4.870783,-0.102156l1.851061,-0.984781s-2.611099,-0.702831 -4.192469,-0.576158c0,0 1.703957,-0.817245 4.731851,0.314639l1.315765,-0.510778s-1.91644,-0.478089 -2.48034,-0.567986s-0.58433,-0.245174 -0.58433,-0.245174a6.721844,6.721844 0 0 1 3.612225,0.588417s2.754117,-0.878539 2.725513,-1.05016z"/>
   <path id="svg_191" opacity="0.1" fill="#6c63ff" d="m461.867625,180.591779s-15.478628,-1.724388 -14.199639,9.251218c0,0 -0.461744,1.904182 1.225868,2.860359c0,0 0.069466,-0.817245 1.634491,-0.453571a7.069173,7.069173 0 0 0 1.683526,0.167535a3.485552,3.485552 0 0 0 2.104407,-0.74778l0,0s4.458074,-1.58137 6.517532,-8.626025c0,0 1.33211,-1.495559 1.303506,-1.896009l-2.676479,0.984781s0.817245,1.936872 0,3.473293c0,0 0.085811,-3.399741 -0.408623,-3.342534c-0.102156,0 -1.393403,0.58433 -1.393403,0.58433s1.372972,3.371137 0.089897,5.720718c0,0 0.645624,-4.033106 -0.58433,-5.491889l-1.900096,0.984781s1.634491,3.493724 0.269691,6.206979c0,0 0.527123,-4.241504 -0.670141,-5.965892l-1.736646,1.225868s1.520076,3.436517 0.371847,5.683942c0,0 0.118501,-4.96068 -0.751866,-5.377475c0,0 -1.524163,1.225868 -1.777509,1.73256c0,0 1.037902,2.492599 0.253346,3.738898c0,0 -0.273777,-3.322103 -0.633365,-3.354792c0,0 -1.569111,2.112579 -1.79794,3.604052a7.955884,7.955884 0 0 1 1.454697,-3.832881a4.360004,4.360004 0 0 0 -2.288287,1.041988s0.302381,-1.536421 2.672392,-1.552766c0,0 1.291248,-1.597715 1.634491,-1.679439c0,0 -2.341408,-0.318726 -3.800191,0.241087c0,0 1.328024,-1.393403 4.249676,-0.580244l1.716215,-1.262644s-3.072843,-0.580244 -4.409039,-0.179794c0,0 1.577284,-1.225868 4.870783,-0.106242l1.851061,-0.980694s-2.611099,-0.702831 -4.192469,-0.576158c0,0 1.703957,-0.817245 4.731851,0.314639l1.315765,-0.514865s-1.91644,-0.478089 -2.48034,-0.563899s-0.58433,-0.245174 -0.58433,-0.245174a6.697326,6.697326 0 0 1 3.612225,0.58433s2.762289,-0.894884 2.721427,-1.070591z"/>
   <path id="svg_192" opacity="0.1" fill="#6c63ff" d="m485.530966,195.04885s-15.478628,-1.720302 -14.199639,9.251218c0,0 -0.457657,1.904182 1.225868,2.860359c0,0 0.069466,-0.817245 1.634491,-0.449485a7.212191,7.212191 0 0 0 1.679439,0.163449a3.5305,3.5305 0 0 0 2.096234,-0.743693l0,0s4.453987,-1.58137 6.513446,-8.630112c0,0 1.336196,-1.491473 1.303506,-1.896009l-2.676479,0.984781s0.817245,1.936872 0,3.473293c0,0 0.085811,-3.395655 -0.408623,-3.342534c-0.102156,0 -1.393403,0.58433 -1.393403,0.58433s1.372972,3.371137 0.089897,5.720718c0,0 0.645624,-4.033106 -0.58433,-5.487803l-1.900096,0.980694s1.634491,3.493724 0.269691,6.206979c0,0 0.527123,-4.241504 -0.670141,-5.961805l-1.736646,1.225868s1.520076,3.436517 0.375933,5.688028c0,0 0.114414,-4.964766 -0.755952,-5.381561c0,0 -1.524163,1.225868 -1.777509,1.73256c0,0 1.037902,2.492599 0.253346,3.738898c0,0 -0.273777,-3.322103 -0.633365,-3.354792c0,0 -1.569111,2.112579 -1.793854,3.604052a7.976315,7.976315 0 0 1 1.450611,-3.832881a4.39678,4.39678 0 0 0 -2.288287,1.041988s0.306467,-1.536421 2.676479,-1.54868c0,0 1.287162,-1.597715 1.634491,-1.683526c0,0 -2.341408,-0.314639 -3.800191,0.245174c0,0 1.328024,-1.39749 4.249676,-0.58433l1.716215,-1.262644s-3.072843,-0.580244 -4.409039,-0.179794c0,0 1.577284,-1.225868 4.870783,-0.102156l1.851061,-0.984781s-2.611099,-0.702831 -4.192469,-0.576158c0,0 1.703957,-0.817245 4.731851,0.314639l1.315765,-0.510778s-1.91644,-0.478089 -2.476254,-0.567986s-0.588417,-0.245174 -0.588417,-0.245174a6.721844,6.721844 0 0 1 3.612225,0.588417s2.774548,-0.903056 2.733686,-1.078764z"/>
   <path id="svg_193" opacity="0.1" fill="#6c63ff" d="m432.994344,73.275198s-12.471165,-9.328856 -16.929239,0.776383c0,0 -1.360714,1.409748 -0.384105,3.09736c0,0 0.46583,-0.657883 1.634491,0.43314a7.154984,7.154984 0 0 0 1.3648,0.997039a3.510069,3.510069 0 0 0 2.194304,0.408623l0,0s4.641954,0.894884 9.990825,-4.135262c0,0 1.904182,-0.612934 2.083976,-0.972522l-2.807238,-0.506692s-0.294208,2.071717 -1.744819,2.999291c0,0 1.793854,-2.884876 1.328024,-3.093274c-0.093983,-0.044948 -1.495559,-0.204311 -1.495559,-0.204311s-0.527123,3.604052 -2.81541,4.964766c0,0 2.602927,-3.150481 2.280115,-5.030146l-2.137097,-0.114414s-0.363674,3.836967 -2.91348,5.487803c0,0 2.607013,-3.387482 2.451736,-5.47963l-2.116666,0.171622s-0.408623,3.730725 -2.557978,5.087353c0,0 2.615185,-4.216986 2.075803,-5.017887c0,0 -1.932785,0.273777 -2.410874,0.592503c0,0 -0.36776,2.672392 -1.675353,3.350706c0,0 1.446524,-3.003377 1.152316,-3.211774c0,0 -2.423133,1.025643 -3.375224,2.194304a7.980401,7.980401 0 0 1 3.19543,-2.566151a4.400867,4.400867 0 0 0 -2.500771,-0.261519s1.041988,-1.168661 3.093274,0.020431c0,0 1.91644,-0.723262 2.243339,-0.633365c0,0 -1.859233,-1.458783 -3.399741,-1.712129c0,0 1.855147,-0.53121 3.959554,1.634491l2.120752,-0.21657s-2.353667,-2.043114 -3.710294,-2.386357c0,0 1.973648,-0.24926 4.249676,2.374098l2.096234,0.093983s-1.896009,-1.928699 -3.322103,-2.623358c0,0 1.879664,0.163449 3.918692,2.668306l1.393403,0.224742s-1.409748,-1.381145 -1.851061,-1.740733s-0.375933,-0.478089 -0.375933,-0.478089a6.717757,6.717757 0 0 1 2.811324,2.337322s2.831755,0.637451 2.884876,0.469916z"/>
   <path id="svg_194" opacity="0.1" fill="#6c63ff" d="m442.629668,140.624392s-4.298711,-14.96785 -13.966724,-9.594461c0,0 -1.936872,0.298295 -2.177959,2.235166c0,0 0.768211,-0.241087 1.033815,1.323938a7.244881,7.244881 0 0 0 0.490347,1.634491a3.510069,3.510069 0 0 0 1.495559,1.667181l0,0s3.16274,3.514155 10.460741,2.7296c0,0 1.887837,0.661969 2.247425,0.482175l-1.932785,-2.100321s-1.4833,1.479214 -3.199516,1.340282c0,0 3.170912,-1.225868 2.925739,-1.663094c-0.049035,-0.089897 -1.070591,-1.066505 -1.070591,-1.066505s-2.590668,2.557978 -5.238543,2.259684c0,0 3.975899,-0.939832 4.850352,-2.63153l-1.634491,-1.381145s-2.607013,2.835842 -5.634907,2.615185c0,0 4.118917,-1.131885 5.254888,-2.893049l-1.789767,-1.140057s-2.594754,2.717341 -5.11187,2.51303c0,0 4.629695,-1.785681 4.686902,-2.745945c0,0 -1.708043,-0.948005 -2.284201,-0.980694c0,0 -1.908268,1.904182 -3.358879,1.659008c0,0 2.966601,-1.524163 2.860359,-1.867406c0,0 -2.549806,-0.641538 -4.016761,-0.286036a7.972229,7.972229 0 0 1 4.086227,-0.118501a4.384522,4.384522 0 0 0 -1.838802,-1.716215s1.536421,-0.306467 2.451736,1.879664c0,0 1.965475,0.580244 2.169787,0.849935c0,0 -0.600675,-2.284201 -1.675353,-3.416086c0,0 1.79794,0.694659 2.161614,3.702122l1.822457,1.107368s-0.637451,-3.06467 -1.520076,-4.143434c0,0 1.724388,0.992953 1.957303,4.458074l1.634491,1.336196s-0.347329,-2.680565 -1.066505,-4.086227c0,0 1.401576,1.26673 1.51599,4.49485l0.972522,1.021557s-0.286036,-1.953217 -0.408623,-2.508943s0,-0.633365 0,-0.633365a6.697326,6.697326 0 0 1 0.837677,3.56319s1.86332,2.19839 2.010424,2.100321z"/>
   <path id="svg_195" opacity="0.1" fill="#6c63ff" d="m346.840333,174.35211s-8.348162,-13.149479 -16.099735,-5.279405c0,0 -1.773423,0.817245 -1.462869,2.758203c0,0 0.674227,-0.449485 1.368886,0.980694a6.995621,6.995621 0 0 0 0.923487,1.413835a3.489638,3.489638 0 0 0 1.900096,1.176833l0,0s4.024934,2.484426 10.808071,-0.326898c0,0 1.998165,0.106242 2.292373,-0.167535l-2.451736,-1.471042s-1.009298,1.838802 -2.69691,2.186131c0,0 2.705082,-2.043114 2.341408,-2.419046c-0.069466,-0.073552 -1.328024,-0.719176 -1.328024,-0.719176s-1.769336,3.179085 -4.392694,3.640828c0,0 3.550931,-2.022682 3.918692,-3.894174l-1.957303,-0.862194s-1.703957,3.452862 -4.670558,4.086227c0,0 3.636742,-2.243339 4.229245,-4.253762l-2.043114,-0.588417s-1.724388,3.338448 -4.196555,3.849226c0,0 3.939123,-3.015636 3.722553,-3.955468c0,0 -1.904182,-0.429054 -2.451736,-0.298295c0,0 -1.295334,2.365925 -2.758203,2.537547c0,0 2.419046,-2.29646 2.218821,-2.59884c0,0 -2.627444,0.102156 -3.935037,0.858108a7.951798,7.951798 0 0 1 3.898261,-1.26673a4.384522,4.384522 0 0 0 -2.243339,-1.131885s1.385231,-0.723262 2.860359,1.11554c0,0 2.043114,0 2.325063,0.204311c0,0 -1.225868,-2.043114 -2.570237,-2.807238c0,0 1.920527,0.163449 3.113705,2.94617l2.063545,0.547554s-1.475128,-2.758203 -2.623358,-3.546845c0,0 1.932785,0.46583 3.13005,3.730725l1.928699,0.817245s-1.086936,-2.472167 -2.177959,-3.62857c0,0 1.69987,0.817245 2.717341,3.886002l1.225868,0.706917s-0.817245,-1.793854 -1.107368,-2.288287s-0.175708,-0.608848 -0.175708,-0.608848a6.701412,6.701412 0 0 1 1.802026,3.183171s2.443564,1.626318 2.553892,1.487387z"/>
   <path id="svg_196" fill="#6c63ff" d="m401.706104,107.166365s-7.939539,-13.398739 -15.936286,-5.773839c0,0 -1.79794,0.776383 -1.544594,2.713255c0,0 0.6824,-0.43314 1.336196,1.017471a7.061,7.061 0 0 0 0.878539,1.446524a3.469207,3.469207 0 0 0 1.86332,1.225868l0,0s3.943209,2.607013 10.812157,0c0,0 1.994079,0.167535 2.29646,-0.098069l-2.398615,-1.544594s-1.062419,1.802026 -2.762289,2.100321c0,0 2.766376,-1.973648 2.419046,-2.345494c-0.073552,-0.077638 -1.307593,-0.764124 -1.307593,-0.764124s-1.867406,3.125964 -4.49485,3.505983c0,0 3.612225,-1.912354 4.033106,-3.767501l-1.928699,-0.907142s-1.810199,3.403827 -4.797231,3.947295c0,0 3.706208,-2.128924 4.360004,-4.118917l-2.018596,-0.653796s-1.83063,3.268982 -4.315056,3.718467c0,0 4.02902,-2.893049 3.841053,-3.836967c0,0 -1.887837,-0.490347 -2.451736,-0.375933c0,0 -1.368886,2.325063 -2.835842,2.451736c0,0 2.488512,-2.214735 2.300546,-2.525288c0,0 -2.63153,0.020431 -3.959554,0.735521a7.976315,7.976315 0 0 1 3.935037,-1.144144a4.392694,4.392694 0 0 0 -2.210649,-1.201351s1.409748,-0.6824 2.860359,1.201351c0,0 2.043114,0.069466 2.316891,0.277863c0,0 -1.156402,-2.043114 -2.48034,-2.884876c0,0 1.912354,0.220656 3.019722,3.040153l2.043114,0.612934s-1.385231,-2.803152 -2.51303,-3.62857c0,0 1.920527,0.527123 3.015636,3.824709l1.900096,0.886711s-1.009298,-2.504857 -2.043114,-3.677604c0,0 1.671267,0.870366 2.59884,3.967726l1.197265,0.743693s-0.768211,-1.818371 -1.037902,-2.320977s-0.155277,-0.612934 -0.155277,-0.612934a6.713671,6.713671 0 0 1 1.703957,3.236292s2.341408,1.663094 2.459909,1.528249z"/>
   <path id="svg_197" fill="#6c63ff" d="m351.474114,135.340901s0.408623,-15.568525 -10.40762,-13.374221c0,0 -1.936872,-0.298295 -2.754117,1.475128c0,0 0.817245,0 0.588417,1.573197a7.175415,7.175415 0 0 0 -0.024517,1.691698a3.493724,3.493724 0 0 0 0.919401,2.043114l0,0s1.94913,4.306883 9.144976,5.769753c0,0 1.597715,1.205437 1.998165,1.140057l-1.225868,-2.582496s-1.859233,0.956177 -3.456948,0.306467c0,0 3.391568,-0.200225 3.297585,-0.698745c0,-0.102156 -0.702831,-1.344369 -0.702831,-1.344369s-3.244464,1.654922 -5.675769,0.567986c0,0 4.086227,0.306467 5.422423,-1.037902l-1.140057,-1.810199s-3.342534,1.912354 -6.16203,0.784556c0,0 4.270107,0.171622 5.888253,-1.164575l-1.360714,-1.634491s-3.297585,1.806112 -5.634907,0.849935c0,0 4.952507,-0.298295 5.312095,-1.201351c0,0 -1.340282,-1.417921 -1.879664,-1.634491c0,0 -2.394529,1.225868 -3.702122,0.563899c0,0 3.268982,-0.547554 3.289413,-0.911229c0,0 -2.235166,-1.385231 -3.742984,-1.487387a7.955884,7.955884 0 0 1 3.943209,1.127799a4.392694,4.392694 0 0 0 -1.225868,-2.194304s1.556853,0.175708 1.769336,2.533461c0,0 1.703957,1.152316 1.814285,1.471042c0,0 0.118501,-2.357753 -0.563899,-3.763415c0,0 1.503732,1.205437 0.939832,4.18021l1.401576,1.609973s0.318726,-3.113705 -0.192053,-4.409039c0,0 1.340282,1.466956 0.514865,4.842179l1.131885,1.761164s0.482175,-2.660134 0.224742,-4.225159c0,0 0.948005,1.634491 0.081725,4.74411l0.621107,1.26673s0.314639,-1.94913 0.355502,-2.517116s0.196139,-0.604762 0.196139,-0.604762a6.709585,6.709585 0 0 1 -0.28195,3.649001s1.099195,2.69691 1.278989,2.643789z"/>
   <ellipse transform="matrix(0.40862270583801674,0,0,0.40862270583801674,0,0) " id="svg_198" opacity="0.1" fill="#6c63ff" ry="4.55" rx="26.93" cy="810.782383" cx="903.903381"/>
   <ellipse transform="matrix(0.40862270583801674,0,0,0.40862270583801674,0,0) " id="svg_199" opacity="0.1" fill="#6c63ff" ry="4.55" rx="26.93" cy="879.862383" cx="805.733381"/>
   <ellipse transform="matrix(0.40862270583801674,0,0,0.40862270583801674,0,0) " id="svg_200" opacity="0.1" fill="#6c63ff" ry="4.55" rx="26.93" cy="844.472383" cx="298.073381"/>
   <ellipse transform="matrix(0.40862270583801674,0,0,0.40862270583801674,0,0) " id="svg_201" opacity="0.1" fill="#6c63ff" ry="4.55" rx="26.93" cy="875.312383" cx="1009.993381"/>
   <ellipse transform="matrix(0.40862270583801674,0,0,0.40862270583801674,0,0) " id="svg_202" fill="#6c63ff" ry="6.8" rx="40.21" cy="817.582383" cx="1038.033381"/>
   <path id="svg_203" fill="#6c63ff" d="m430.975748,329.534755a4.74411,4.74411 0 0 0 1.565025,-2.361839c0.204311,-0.939832 -0.196139,-2.063545 -1.091023,-2.406788c-1.005212,-0.384105 -2.07989,0.310553 -2.897135,1.013384s-1.744819,1.507818 -2.811324,1.360714a4.290538,4.290538 0 0 0 1.323938,-4.008589a1.679439,1.679439 0 0 0 -0.36776,-0.817245c-0.559813,-0.596589 -1.569111,-0.339157 -2.239252,0.130759c-2.124838,1.495559 -2.717341,4.380435 -2.7296,6.979276c-0.212484,-0.935746 -0.03269,-1.912354 -0.036776,-2.860359s-0.269691,-2.043114 -1.08285,-2.541633a3.232206,3.232206 0 0 0 -1.634491,-0.408623c-0.956177,-0.03269 -2.022682,0.061293 -2.672392,0.760038c-0.817245,0.86628 -0.600675,2.325063 0.102156,3.268982s1.777509,1.552766 2.766376,2.214735a6.182462,6.182462 0 0 1 1.977734,1.883751a1.920527,1.920527 0 0 1 0.143018,0.335071l5.990409,0a16.524702,16.524702 0 0 0 3.693949,-2.541633z"/>
   <path id="svg_204" fill="#a8a8a8" d="m114.411652,336.42822s6.272359,-0.192053 8.172454,-1.540508s9.655755,-2.954342 10.125671,-0.792728s9.431012,10.742691 2.345494,10.799898s-16.463409,-1.103281 -18.351246,-2.255597s-2.292373,-6.211065 -2.292373,-6.211065z"/>
   <path id="svg_205" opacity="0.2" d="m135.173771,344.143017c-7.085518,0.057207 -16.463409,-1.103281 -18.351246,-2.255597c-1.438352,-0.874453 -2.010424,-4.016761 -2.202476,-5.467372l-0.208398,0s0.408623,5.062835 2.284201,6.211065s11.265728,2.312805 18.351246,2.255597c2.043114,0 2.750031,-0.743693 2.713255,-1.822457c-0.286036,0.657883 -1.066505,1.066505 -2.586582,1.078764z"/>
  </g>
 </g>
</svg>